<?xml version="1.0" encoding="UTF-8"?>
<svg width="242px" height="362px" viewBox="0 0 242 362" version="1.1" xmlns="http://www.w3.org/2000/svg" xmlns:xlink="http://www.w3.org/1999/xlink">
    <title>91C1937E-3018-4BBC-AA9E-4BCF46B5CC88@1.00x</title>
    <g id="Home" stroke="none" stroke-width="1" fill="none" fill-rule="evenodd" fill-opacity="0">
        <g id="Homepage" transform="translate(-119.000000, -5381.000000)" fill="#FFFFFF" stroke="#A7A8AA">
            <g id="Investors" transform="translate(120.000000, 5258.000000)">
                <g id="Group" transform="translate(0.000000, 124.000000)">
                    <g id="U" transform="translate(120.000000, 180.000000) scale(-1, 1) translate(-120.000000, -180.000000) ">
                        <polygon id="Rectangle-Copy-34" transform="translate(90.000000, 150.000000) scale(-1, -1) translate(-90.000000, -150.000000) " points="60 120 120 120 120 180 90 150"></polygon>
                        <polygon id="Rectangle-Copy-35" transform="translate(150.000000, 90.000000) scale(1, -1) translate(-150.000000, -90.000000) " points="120 60 180 60 180 120 150 90"></polygon>
                        <polygon id="Rectangle-Copy-36" transform="translate(90.000000, 90.000000) scale(-1, -1) translate(-90.000000, -90.000000) " points="60 60 120 60 120 120 90 90"></polygon>
                        <polygon id="Rectangle-Copy-41" transform="translate(210.000000, 150.000000) scale(-1, 1) translate(-210.000000, -150.000000) " points="180 120 240 120 240 180 210 150"></polygon>
                        <polygon id="Rectangle-Copy-49" transform="translate(210.000000, 150.000000) scale(1, -1) translate(-210.000000, -150.000000) " points="180 120 240 120 240 180 210 150"></polygon>
                        <polygon id="Rectangle-Copy-54" points="60 180 120 180 120 240 90 210"></polygon>
                        <polygon id="Rectangle-Copy-55" points="120 240 180 240 180 300 150 270"></polygon>
                        <polygon id="Rectangle-Copy-80" points="60 240 120 240 120 300 90 270"></polygon>
                        <polygon id="Rectangle-Copy-57" points="120 180 180 180 180 240 150 210"></polygon>
                        <polygon id="Rectangle-Copy-58" points="180 180 240 180 240 240 210 210"></polygon>
                        <polygon id="Rectangle-Copy-59" points="180 240 240 240 240 300 210 270"></polygon>
                        <polygon id="Rectangle-Copy-56" transform="translate(210.000000, 330.000000) scale(-1, 1) translate(-210.000000, -330.000000) " points="180 300 240 300 240 360 210 330"></polygon>
                        <polygon id="Rectangle-Copy-63" transform="translate(150.000000, 330.000000) scale(1, -1) translate(-150.000000, -330.000000) " points="120 300 180 300 180 360 150 330"></polygon>
                        <polygon id="Rectangle-Copy-65" transform="translate(90.000000, 330.000000) scale(-1, -1) translate(-90.000000, -330.000000) " points="60 300 120 300 120 360 90 330"></polygon>
                        <polygon id="Rectangle-Copy-64" points="0 300 60 300 60 360 30 330"></polygon>
                        <polygon id="Rectangle-Copy-42" points="180 60 240 60 240 120 210 90"></polygon>
                        <polygon id="Rectangle-Copy-43" points="180 0 240 0 240 60 210 30"></polygon>
                        <polygon id="Rectangle-Copy-50" transform="translate(210.000000, 30.000000) scale(-1, -1) translate(-210.000000, -30.000000) " points="180 0 240 0 240 60 210 30"></polygon>
                        <polygon id="Rectangle-Copy-62" transform="translate(30.000000, 30.000000) scale(-1, 1) translate(-30.000000, -30.000000) " points="0 0 60 0 60 60 30 30"></polygon>
                        <polygon id="Rectangle-Copy-81" transform="translate(30.000000, 30.000000) scale(1, -1) translate(-30.000000, -30.000000) " points="0 0 60 0 60 60 30 30"></polygon>
                        <polygon id="Rectangle-Copy-53" transform="translate(30.000000, 90.000000) scale(-1, 1) translate(-30.000000, -90.000000) " points="0 60 60 60 60 120 30 90"></polygon>
                        <polygon id="Rectangle-Copy-60" transform="translate(30.000000, 210.000000) scale(1, -1) translate(-30.000000, -210.000000) " points="0 180 60 180 60 240 30 210"></polygon>
                        <polygon id="Rectangle-Copy-79" transform="translate(30.000000, 210.000000) scale(-1, 1) translate(-30.000000, -210.000000) " points="0 180 60 180 60 240 30 210"></polygon>
                        <polygon id="Rectangle-Copy-66" points="0 240 60 240 60 300 30 270"></polygon>
                        <polygon id="Rectangle-Copy-61" transform="translate(30.000000, 150.000000) scale(-1, 1) translate(-30.000000, -150.000000) " points="0 120 60 120 60 180 30 150"></polygon>
                        <polygon id="Rectangle-Copy-39" transform="translate(150.000000, 150.000000) scale(-1, 1) translate(-150.000000, -150.000000) " points="120 120 180 120 180 180 150 150"></polygon>
                    </g>
                </g>
            </g>
        </g>
    </g>
</svg>